<svg xmlns="http://www.w3.org/2000/svg" width="180" height="80" viewBox="0 0 180 80" version="1.1"><path d="M 37.333 16.667 C 37.700 17.033, 38.300 17.033, 38.667 16.667 C 39.033 16.300, 38.733 16, 38 16 C 37.267 16, 36.967 16.300, 37.333 16.667 M 40.333 17.667 C 40.700 18.033, 41.300 18.033, 41.667 17.667 C 42.033 17.300, 41.733 17, 41 17 C 40.267 17, 39.967 17.300, 40.333 17.667 M 43 18.393 C 43 18.609, 43.698 19.054, 44.552 19.382 C 45.442 19.723, 45.843 19.555, 45.493 18.989 C 44.906 18.038, 43 17.583, 43 18.393 M 18.405 20.155 C 17.962 20.870, 18.130 21.038, 18.845 20.595 C 19.480 20.203, 20 19.684, 20 19.441 C 20 18.607, 19.117 19.002, 18.405 20.155 M 47.500 21 C 47.840 21.550, 48.343 22, 48.618 22 C 48.893 22, 48.840 21.550, 48.500 21 C 48.160 20.450, 47.657 20, 47.382 20 C 47.107 20, 47.160 20.450, 47.500 21 M 14.405 23.250 L 12.500 25.500 14.750 23.595 C 16.864 21.805, 17.455 21, 16.655 21 C 16.465 21, 15.453 22.012, 14.405 23.250 M 35.333 21.667 C 35.700 22.033, 36.300 22.033, 36.667 21.667 C 37.033 21.300, 36.733 21, 36 21 C 35.267 21, 34.967 21.300, 35.333 21.667 M 39 22.449 C 39 22.724, 40.350 23.647, 42 24.500 C 43.650 25.353, 45 25.826, 45 25.551 C 45 25.276, 43.650 24.353, 42 23.500 C 40.350 22.647, 39 22.174, 39 22.449 M 26.405 24.155 C 25.962 24.870, 26.130 25.038, 26.845 24.595 C 27.480 24.203, 28 23.684, 28 23.441 C 28 22.607, 27.117 23.002, 26.405 24.155 M 23.405 26.155 C 22.962 26.870, 23.130 27.038, 23.845 26.595 C 24.480 26.203, 25 25.684, 25 25.441 C 25 24.607, 24.117 25.002, 23.405 26.155 M 52 25.378 C 52 25.585, 52.788 26.373, 53.750 27.128 C 55.336 28.371, 55.371 28.336, 54.128 26.750 C 52.821 25.084, 52 24.555, 52 25.378 M 20.405 28.155 C 19.962 28.870, 20.130 29.038, 20.845 28.595 C 21.480 28.203, 22 27.684, 22 27.441 C 22 26.607, 21.117 27.002, 20.405 28.155 M 48 27.393 C 48 27.609, 48.698 28.054, 49.552 28.382 C 50.442 28.723, 50.843 28.555, 50.493 27.989 C 49.906 27.038, 48 26.583, 48 27.393 M 25.813 29.683 C 26.534 29.972, 27.397 29.936, 27.729 29.604 C 28.061 29.272, 27.471 29.036, 26.417 29.079 C 25.252 29.127, 25.015 29.364, 25.813 29.683 M 31.333 29.667 C 31.700 30.033, 32.300 30.033, 32.667 29.667 C 33.033 29.300, 32.733 29, 32 29 C 31.267 29, 30.967 29.300, 31.333 29.667 M 54.500 30 C 54.160 30.550, 54.359 31, 54.941 31 C 55.523 31, 56 30.550, 56 30 C 56 29.450, 55.802 29, 55.559 29 C 55.316 29, 54.840 29.450, 54.500 30 M 15.405 31.155 C 14.962 31.870, 15.130 32.038, 15.845 31.595 C 16.480 31.203, 17 30.684, 17 30.441 C 17 29.607, 16.117 30.002, 15.405 31.155 M 22.405 31.155 C 21.962 31.870, 22.130 32.038, 22.845 31.595 C 23.480 31.203, 24 30.684, 24 30.441 C 24 29.607, 23.117 30.002, 22.405 31.155 M 35.500 31 C 35.840 31.550, 36.343 32, 36.618 32 C 36.893 32, 36.840 31.550, 36.500 31 C 36.160 30.450, 35.657 30, 35.382 30 C 35.107 30, 35.160 30.450, 35.500 31 M 12.405 33.155 C 11.962 33.870, 12.130 34.038, 12.845 33.595 C 13.480 33.203, 14 32.684, 14 32.441 C 14 31.607, 13.117 32.002, 12.405 33.155 M 39.733 33.124 C 40.412 33.808, 41.219 34.115, 41.526 33.807 C 41.834 33.499, 41.279 32.940, 40.293 32.564 C 38.868 32.022, 38.753 32.136, 39.733 33.124 M 17.405 34.155 C 16.962 34.870, 17.130 35.038, 17.845 34.595 C 18.998 33.883, 19.393 33, 18.559 33 C 18.316 33, 17.797 33.520, 17.405 34.155 M 7.079 35.583 C 7.127 36.748, 7.364 36.985, 7.683 36.188 C 7.972 35.466, 7.936 34.603, 7.604 34.271 C 7.272 33.939, 7.036 34.529, 7.079 35.583 M 9.405 35.155 C 8.962 35.870, 9.130 36.038, 9.845 35.595 C 10.480 35.203, 11 34.684, 11 34.441 C 11 33.607, 10.117 34.002, 9.405 35.155 M 45.500 36 C 45.840 36.550, 46.343 37, 46.618 37 C 46.893 37, 46.840 36.550, 46.500 36 C 46.160 35.450, 45.657 35, 45.382 35 C 45.107 35, 45.160 35.450, 45.500 36 M 23.441 37.555 C 21.577 39.049, 21.589 39.067, 23.750 38.020 C 24.988 37.420, 26 36.720, 26 36.465 C 26 35.700, 25.481 35.921, 23.441 37.555 M 32.733 37.124 C 33.412 37.808, 34.219 38.115, 34.526 37.807 C 34.834 37.499, 34.279 36.940, 33.293 36.564 C 31.868 36.022, 31.753 36.136, 32.733 37.124 M 49.500 38 C 49.840 38.550, 50.343 39, 50.618 39 C 50.893 39, 50.840 38.550, 50.500 38 C 50.160 37.450, 49.657 37, 49.382 37 C 49.107 37, 49.160 37.450, 49.500 38 M 19 40 C 18.099 40.582, 17.975 40.975, 18.691 40.985 C 19.346 40.993, 20.160 40.550, 20.500 40 C 21.267 38.758, 20.921 38.758, 19 40 M 53.733 40.124 C 54.412 40.808, 55.219 41.115, 55.526 40.807 C 55.834 40.499, 55.279 39.940, 54.293 39.564 C 52.868 39.022, 52.753 39.136, 53.733 40.124 M 57.825 43.674 C 58.251 45.767, 58.503 46.019, 58.794 44.644 C 59.011 43.623, 58.751 42.351, 58.218 41.818 C 57.592 41.192, 57.452 41.849, 57.825 43.674 M 30.333 43.667 C 30.700 44.033, 31.300 44.033, 31.667 43.667 C 32.033 43.300, 31.733 43, 31 43 C 30.267 43, 29.967 43.300, 30.333 43.667 M 47.500 44 C 47.840 44.550, 48.343 45, 48.618 45 C 48.893 45, 48.840 44.550, 48.500 44 C 48.160 43.450, 47.657 43, 47.382 43 C 47.107 43, 47.160 43.450, 47.500 44 M 27.405 45.155 C 26.962 45.870, 27.130 46.038, 27.845 45.595 C 28.480 45.203, 29 44.684, 29 44.441 C 29 43.607, 28.117 44.002, 27.405 45.155 M 51 46 C 51.825 46.533, 52.950 46.969, 53.500 46.969 C 54.050 46.969, 53.825 46.533, 53 46 C 52.175 45.467, 51.050 45.031, 50.500 45.031 C 49.950 45.031, 50.175 45.467, 51 46 M 47 47.393 C 47 47.609, 47.698 48.054, 48.552 48.382 C 49.442 48.723, 49.843 48.555, 49.493 47.989 C 48.906 47.038, 47 46.583, 47 47.393 M 19.405 50.155 C 18.962 50.870, 19.130 51.038, 19.845 50.595 C 20.480 50.203, 21 49.684, 21 49.441 C 21 48.607, 20.117 49.002, 19.405 50.155 M 52.500 50 C 52.840 50.550, 53.343 51, 53.618 51 C 53.893 51, 53.840 50.550, 53.500 50 C 53.160 49.450, 52.657 49, 52.382 49 C 52.107 49, 52.160 49.450, 52.500 50 M 31.333 50.667 C 31.700 51.033, 32.300 51.033, 32.667 50.667 C 33.033 50.300, 32.733 50, 32 50 C 31.267 50, 30.967 50.300, 31.333 50.667 M 56 52 C 56 52.733, 56.300 53.033, 56.667 52.667 C 57.033 52.300, 57.033 51.700, 56.667 51.333 C 56.300 50.967, 56 51.267, 56 52 M 12.405 54.155 C 11.962 54.870, 12.130 55.038, 12.845 54.595 C 13.480 54.203, 14 53.684, 14 53.441 C 14 52.607, 13.117 53.002, 12.405 54.155 M 45 54 C 45.825 54.533, 46.950 54.969, 47.500 54.969 C 48.050 54.969, 47.825 54.533, 47 54 C 46.175 53.467, 45.050 53.031, 44.500 53.031 C 43.950 53.031, 44.175 53.467, 45 54 M 21 56 C 20.099 56.582, 19.975 56.975, 20.691 56.985 C 21.346 56.993, 22.160 56.550, 22.500 56 C 23.267 54.758, 22.921 54.758, 21 56 M 12.500 59 C 12.840 59.550, 13.343 60, 13.618 60 C 13.893 60, 13.840 59.550, 13.500 59 C 13.160 58.450, 12.657 58, 12.382 58 C 12.107 58, 12.160 58.450, 12.500 59 M 37 60 C 37.825 60.533, 38.950 60.969, 39.500 60.969 C 40.050 60.969, 39.825 60.533, 39 60 C 38.175 59.467, 37.050 59.031, 36.500 59.031 C 35.950 59.031, 36.175 59.467, 37 60 M 17.433 62.891 C 18.146 64.045, 22 66.374, 22 65.650 C 22 65.419, 20.820 64.457, 19.377 63.511 C 17.934 62.566, 17.059 62.287, 17.433 62.891 M 43.333 62.667 C 43.700 63.033, 44.300 63.033, 44.667 62.667 C 45.033 62.300, 44.733 62, 44 62 C 43.267 62, 42.967 62.300, 43.333 62.667 M 45.405 64.155 C 44.962 64.870, 45.130 65.038, 45.845 64.595 C 46.998 63.883, 47.393 63, 46.559 63 C 46.316 63, 45.797 63.520, 45.405 64.155 M 40.333 66.667 C 40.700 67.033, 41.300 67.033, 41.667 66.667 C 42.033 66.300, 41.733 66, 41 66 C 40.267 66, 39.967 66.300, 40.333 66.667 M 29.264 67.718 C 30.784 67.947, 33.034 67.941, 34.264 67.704 C 35.494 67.467, 34.250 67.279, 31.500 67.286 C 28.750 67.294, 27.744 67.488, 29.264 67.718 M 37.333 67.667 C 37.700 68.033, 38.300 68.033, 38.667 67.667 C 39.033 67.300, 38.733 67, 38 67 C 37.267 67, 36.967 67.300, 37.333 67.667" stroke="none" fill="#202020" fill-rule="evenodd"/><path d="M 25.519 16.814 C 25.142 17.191, 24.440 17.500, 23.958 17.500 C 23.477 17.500, 20.639 19.271, 17.650 21.436 C 12.798 24.952, 8 31.696, 8 35 C 8 35.521, 12.876 32.809, 18.835 28.973 C 29.530 22.089, 35.150 20.082, 37.750 22.218 C 38.438 22.783, 39 22.955, 39 22.600 C 39 22.246, 42.417 23.799, 46.594 26.051 C 50.771 28.303, 54.416 29.917, 54.695 29.638 C 54.974 29.360, 53.987 27.538, 52.501 25.590 C 48.628 20.513, 40.011 16.546, 32.352 16.314 C 28.971 16.212, 25.896 16.437, 25.519 16.814 M 67 35 L 67 42 72 42 C 75.778 42, 77 41.633, 77 40.500 C 77 39.500, 76 39, 74 39 C 72 39, 71 38.500, 71 37.500 C 71 36.567, 71.944 36, 73.500 36 C 75.056 36, 76 35.433, 76 34.500 C 76 33.567, 75.056 33, 73.500 33 C 72.125 33, 71 32.550, 71 32 C 71 31.450, 72.350 31, 74 31 C 76 31, 77 30.500, 77 29.500 C 77 28.367, 75.778 28, 72 28 L 67 28 67 35 M 79.805 31.394 C 81.780 34.742, 81.782 34.830, 79.904 37.918 C 77.567 41.760, 77.559 42, 79.759 42 C 80.727 42, 82.112 41.050, 82.837 39.889 L 84.156 37.778 85.635 39.889 C 86.448 41.050, 87.763 42, 88.557 42 C 90.380 42, 90.364 41.605, 88.386 37.779 C 86.900 34.906, 86.900 34.439, 88.386 31.924 C 89.274 30.421, 90 28.923, 90 28.596 C 90 27.276, 86.632 28.113, 85.360 29.750 C 84.063 31.417, 83.949 31.417, 82.950 29.750 C 82.373 28.788, 80.979 28, 79.852 28 L 77.802 28 79.805 31.394 M 92 35 C 92 40.556, 92.310 42, 93.500 42 C 94.325 42, 95 41.165, 95 40.145 C 95 38.908, 96.084 37.980, 98.250 37.363 C 100.778 36.642, 101.572 35.819, 101.822 33.658 C 102.273 29.771, 100.412 28, 95.878 28 L 92 28 92 35 M 103 35 L 103 42 108 42 C 111.778 42, 113 41.633, 113 40.500 C 113 39.500, 112 39, 110 39 C 107.030 39, 107 38.944, 107 33.500 C 107 28.667, 106.758 28, 105 28 C 103.190 28, 103 28.667, 103 35 M 115.624 29.518 C 113.383 31.760, 113.506 38.243, 115.829 40.345 C 121.494 45.472, 129.689 37.903, 125.872 31.069 C 124.094 27.885, 118.156 26.987, 115.624 29.518 M 128 35 C 128 41.333, 128.190 42, 130 42 C 131.507 42, 132.008 41.323, 132.032 39.250 L 132.063 36.500 134.115 39.250 C 135.244 40.763, 136.804 42, 137.583 42 C 139.287 42, 139.338 41.500, 137.907 38.827 C 137.117 37.350, 137.117 36.483, 137.907 35.693 C 139.357 34.243, 139.298 30.698, 137.800 29.200 C 137.140 28.540, 134.665 28, 132.300 28 L 128 28 128 35 M 140 35 L 140 42 145 42 C 148.778 42, 150 41.633, 150 40.500 C 150 39.500, 149 39, 147 39 C 145 39, 144 38.500, 144 37.500 C 144 36.567, 144.944 36, 146.500 36 C 148.056 36, 149 35.433, 149 34.500 C 149 33.567, 148.056 33, 146.500 33 C 145.125 33, 144 32.550, 144 32 C 144 31.450, 145.350 31, 147 31 C 149 31, 150 30.500, 150 29.500 C 150 28.367, 148.778 28, 145 28 L 140 28 140 35 M 151 35 C 151 41.333, 151.190 42, 153 42 C 154.467 42, 155 41.333, 155 39.500 C 155 38.125, 155.378 37, 155.839 37 C 156.301 37, 157.192 38.125, 157.818 39.500 C 158.445 40.875, 159.642 42, 160.479 42 C 162.242 42, 162.417 40.648, 160.997 37.995 C 160.327 36.743, 160.327 35.916, 160.997 35.502 C 162.382 34.646, 162.257 30.657, 160.800 29.200 C 160.140 28.540, 157.665 28, 155.300 28 L 151 28 151 35 M 27 29.648 C 23.360 30.888, 22.499 31.110, 22.477 30.815 C 22.464 30.642, 21.348 31.530, 19.996 32.789 C 18.645 34.047, 16.518 35.334, 15.270 35.647 C 14.021 35.960, 13 36.618, 13 37.108 C 13 37.599, 12.325 38, 11.500 38 C 10.675 38, 10 38.420, 10 38.933 C 10 39.446, 9.062 40.163, 7.915 40.527 C 6.237 41.060, 5.960 41.706, 6.497 43.842 C 6.863 45.302, 7.320 46.653, 7.512 46.845 C 7.975 47.309, 14.406 43.711, 14.833 42.750 C 15.017 42.337, 15.804 42, 16.583 42 C 17.363 42, 18 41.652, 18 41.227 C 18 39.748, 25.364 36.499, 28.900 36.418 C 31.034 36.369, 35.074 37.628, 38.981 39.558 C 42.566 41.330, 45.832 42.841, 46.237 42.915 C 46.643 42.988, 49.438 44.327, 52.449 45.889 C 55.739 47.596, 58.067 48.300, 58.283 47.652 C 58.980 45.560, 57.715 41.828, 56.118 41.266 C 55.228 40.952, 53.712 40.020, 52.750 39.193 C 51.788 38.366, 51 38.055, 51 38.500 C 51 38.945, 50.053 38.453, 48.895 37.405 C 47.737 36.357, 46.500 35.552, 46.145 35.615 C 45.081 35.804, 40.623 33.716, 38.750 32.152 C 37.788 31.348, 37 31.040, 37 31.467 C 37 31.895, 36.438 31.792, 35.750 31.238 C 34.135 29.937, 28.929 28.990, 27 29.648 M 95 33 C 95 34.100, 95.395 35, 95.878 35 C 97.189 35, 99.082 32.415, 98.325 31.658 C 96.956 30.289, 95 31.078, 95 33 M 117.406 33.520 C 116.605 36.708, 118.792 39.401, 121.376 38.409 C 124.060 37.379, 123.186 31.598, 120.285 31.185 C 118.599 30.945, 117.912 31.503, 117.406 33.520 M 132 32.500 C 132 33.325, 132.675 34, 133.500 34 C 134.325 34, 135 33.325, 135 32.500 C 135 31.675, 134.325 31, 133.500 31 C 132.675 31, 132 31.675, 132 32.500 M 155 32.500 C 155 33.530, 155.655 34.020, 156.750 33.810 C 158.858 33.404, 158.725 31.629, 156.553 31.177 C 155.647 30.988, 155 31.539, 155 32.500 M 27.500 45.590 C 24.750 47.050, 21.788 48.865, 20.919 49.624 C 20.049 50.383, 19.037 50.703, 18.669 50.336 C 18.301 49.968, 18 50.119, 18 50.672 C 18 51.226, 16.229 52.538, 14.063 53.589 L 10.127 55.500 12.171 57.679 C 13.940 59.565, 14.572 59.703, 16.858 58.700 C 18.311 58.062, 19.725 57.284, 20 56.969 C 21.646 55.088, 32.418 50.002, 34.735 50.012 C 36.256 50.019, 41.100 51.598, 45.500 53.521 C 52.965 56.783, 53.585 56.901, 54.779 55.278 C 56.200 53.346, 56.045 50.904, 54.500 50.876 C 53.950 50.866, 52.712 50.145, 51.750 49.274 C 50.788 48.403, 50 47.992, 50 48.362 C 50 48.731, 47.638 47.807, 44.750 46.309 C 37.461 42.526, 33.579 42.364, 27.500 45.590 M 67 53 L 67 60 72 60 C 75.778 60, 77 59.633, 77 58.500 C 77 57.500, 76 57, 74 57 C 72.350 57, 71 56.550, 71 56 C 71 55.450, 72.125 55, 73.500 55 C 75.056 55, 76 54.433, 76 53.500 C 76 52.567, 75.056 52, 73.500 52 C 71.944 52, 71 51.433, 71 50.500 C 71 49.500, 72 49, 74 49 C 76 49, 77 48.500, 77 47.500 C 77 46.367, 75.778 46, 72 46 L 67 46 67 53 M 78.667 46.667 C 78.300 47.033, 78 50.183, 78 53.667 L 78 60 83 60 C 86.778 60, 88 59.633, 88 58.500 C 88 57.500, 87 57, 85 57 C 82.030 57, 82 56.944, 82 51.500 C 82 47.583, 81.616 46, 80.667 46 C 79.933 46, 79.033 46.300, 78.667 46.667 M 89 53 C 89 58.556, 89.310 60, 90.500 60 C 91.690 60, 92 58.556, 92 53 C 92 47.444, 91.690 46, 90.500 46 C 89.310 46, 89 47.444, 89 53 M 93.667 46.667 C 92.399 47.934, 93.008 49, 95 49 C 96.758 49, 97 49.667, 97 54.500 C 97 59.333, 97.242 60, 99 60 C 100.758 60, 101 59.333, 101 54.500 C 101 49.667, 101.242 49, 103 49 C 104.111 49, 105 48.333, 105 47.500 C 105 46.354, 103.741 46, 99.667 46 C 96.733 46, 94.033 46.300, 93.667 46.667 M 106 53 L 106 60 111 60 C 114.778 60, 116 59.633, 116 58.500 C 116 57.500, 115 57, 113 57 C 111.350 57, 110 56.550, 110 56 C 110 55.450, 111.125 55, 112.500 55 C 114.056 55, 115 54.433, 115 53.500 C 115 52.567, 114.056 52, 112.500 52 C 110.944 52, 110 51.433, 110 50.500 C 110 49.500, 111 49, 113 49 C 115 49, 116 48.500, 116 47.500 C 116 46.367, 114.778 46, 111 46 L 106 46 106 53 M 22.784 59.674 C 20.189 61.118, 18.270 62.627, 18.517 63.028 C 20.865 66.827, 35.742 68.418, 42.469 65.588 L 46.437 63.919 38.479 60.460 C 34.102 58.557, 29.841 57.011, 29.010 57.024 C 28.180 57.038, 25.378 58.230, 22.784 59.674" stroke="none" fill="#040404" fill-rule="evenodd"/></svg>
