<svg xmlns="http://www.w3.org/2000/svg" width="180" height="80" viewBox="0 0 180 80" version="1.1">
	<path d="M335.5,401.8l84.2,43.7c-21-45.3-66.8-76.7-120-76.7c-63.3,0-116.1,44.5-129.1,103.8c9-5.8,108.8-70,108.8-70
		C299,391.7,318.4,392.6,335.5,401.8"/>
	<path d="M338.4,512.5c-18.9-8.3-40.5-7.3-58.5,2.8L187.7,571c5.4,8.6,11.7,16.5,18.8,23.6l75.5-44.9c18.5-10.4,35.2-10.6,54-2.3
		l70.4,32c6.3-8.6,11.6-17.9,15.7-27.9L338.4,512.5z"/>
	<path d="M248.9,591.5c0,0-24.1,15.7-26.6,16.6c21.8,15.8,48.5,25.1,77.5,25.1c26,0,50.2-7.5,70.6-20.4L312.8,589
		C292.5,578.7,268.3,579.6,248.9,591.5"/>
	<path d="M303.7,475.6l123.8,59.1c2.7-10.1,4.1-20.6,4.3-31.5l-119.5-59.9c-20.3-10.3-44.4-9.3-63.9,2.5l-80.8,51.5
		c0,1.2-0.1,2.4-0.1,3.7c0,9.9,1.1,19.5,3.2,28.8l81.7-51.2C267.9,468.8,287.3,467.7,303.7,475.6"/>
</g>
<g>
	<path d="M503.6,424.5v16.1c0,2,1.6,3.6,3.6,3.6h25.7v12.3h-25.7c-2,0-3.6,1.6-3.6,3.6v17.2h39.9V490h-55.1v-78.2h55.1v12.7H503.6z"
		/>
	<path d="M564.7,434.1l8.6,12.2c1.5,2.1,4.7,2.1,6.1-0.1l7.9-12.1h16.3L584.3,462l19.6,27.9h-17.2l-8.6-12.3
		c-1.5-2.1-4.7-2.1-6.1,0.1l-7.8,12.1h-16.3l19.1-28.2l-19.4-27.7h17.1V434.1z"/>
	<path d="M624.6,492.1v20.3h-15.2v-78.2h13.9c0.4,2.8,3.5,4.3,5.8,2.8c3.3-2.1,7.4-3.5,12.3-3.5c14.5,0,24.7,11.3,24.7,28.7
		c0,17.4-10.1,28.7-24.7,28.7c-4.1,0-7.8-0.9-10.8-2.5C627.8,487,624.6,489,624.6,492.1 M637.6,446.7c-7.2,0-13.1,5.4-13.1,15.4
		c0,9.9,5.9,15.5,13.1,15.5c7,0,12.9-5.6,12.9-15.5C650.5,452,644.7,446.7,637.6,446.7"/>
	<rect x="674.9" y="409.6" width="15.2" height="80.5"/>
	<path d="M697,462.1c0-17.5,12.4-28.7,28.6-28.7c16.2,0,28.6,11.2,28.6,28.7c0,17.7-12.7,28.7-29.1,28.7
		C709.1,490.8,697,479.7,697,462.1 M738.7,462.1c0-10.5-6.4-15.8-13.3-15.8c-6.9,0-12.9,5.3-12.9,15.8s5.7,15.6,12.6,15.6
		C732.1,477.7,738.7,472.6,738.7,462.1"/>
	<path d="M775,434.1L775,434.1c0.4,2.8,3.6,4.2,6,2.7c4-2.7,9-3.9,14.5-2.7v13.5c-7.8-2.5-19.1,2-19.1,16.1V490h-15.2v-55.9H775z"/>
	<path d="M795.9,461.6c0-17.5,10.7-28.3,27.5-28.3c16.2,0,27,10.8,27,27.5c0,1.8-0.1,3.7-0.6,6h-35.1c-1.8,0-3,1.8-2.4,3.4
		c1.8,5,6.1,7.9,11.5,7.9c6.6,0,10.4-1.9,12.6-6.3l12.9,3.8c-4.5,9.5-13,15.1-25.7,15.1C807.4,490.8,795.9,479.3,795.9,461.6
		 M823.1,445.7c-4.8,0-8.5,2.8-10.4,7.3c-0.7,1.7,0.6,3.5,2.4,3.5h19.5C834.4,449.8,829.8,445.7,823.1,445.7"/>
	<path d="M871.2,434.1L871.2,434.1c0.4,2.8,3.6,4.2,6,2.7c4-2.7,9-3.9,14.5-2.7v13.5c-7.8-2.5-19.1,2-19.1,16.1V490h-15.2v-55.9
		H871.2z"/>
	<path d="M504.1,525.7V541c0,2.4,2,4.4,4.4,4.4h24.9v12.3h-24.9c-2.4,0-4.4,2-4.4,4.4v16.4H544v12.7h-55.1V513H544v12.7H504.1z"/>
	<rect x="552.1" y="510.7" width="15.2" height="80.5"/>
	<path d="M577,519.6c0-5,3.9-8.8,9.2-8.8c5.4,0,9.2,3.8,9.2,8.8c0,4.8-3.8,8.7-9.2,8.7C580.9,528.3,577,524.4,577,519.6
		 M593.7,591.2h-15.3v-55.9h15.3V591.2z"/>
	<path d="M610.2,529.2v-9.5h14.3v15.6h12.3V548h-7.1c-2.9,0-5.2,2.3-5.2,5.2v17.2c0,8.7,6.4,8.6,12.3,7.7v12.4
		c-14.2,2.8-27.7-1.3-27.7-20.1v-22.5h-7.9v-12.7h3.1C607.8,535.3,610.2,532.8,610.2,529.2"/>
	<path d="M642.3,562.8c0-17.5,10.7-28.3,27.5-28.3c16.2,0,27,10.8,27,27.5c0,1.8-0.1,3.7-0.6,6h-33.6c-2.7,0-4.4,2.9-3.1,5.2
		c2.1,3.8,6,6,10.6,6c6.6,0,10.4-1.9,12.6-6.3l12.9,3.8c-4.5,9.5-13,15.1-25.7,15.1C653.8,592,642.3,580.5,642.3,562.8 M669.5,546.8
		c-4.1,0-7.4,2.1-9.5,5.4c-1.4,2.4,0.2,5.4,3,5.4h18C680.8,551,676.2,546.8,669.5,546.8"/>
</g>


</svg>
